<svg width="32" height="32" viewBox="0 0 32 32" fill="none" xmlns="http://www.w3.org/2000/svg">
<path d="M0 16C0 7.16344 7.16344 0 16 0C24.8366 0 32 7.16344 32 16C32 24.8366 24.8366 32 16 32C7.16344 32 0 24.8366 0 16Z" fill="url(#paint0_linear_61_835)"/>
<path d="M20.6875 13.5C22.2308 13.5613 23.5412 14.8474 23.499 16.5703C23.4892 16.9711 23.3495 17.4666 23.07 18.4574C22.3974 20.842 21.267 22.912 18.7346 23.4087C18.2691 23.5 17.7453 23.5 16.6977 23.5L15.3023 23.5C14.2547 23.5 13.7309 23.5 13.2654 23.4087C10.733 22.912 9.60263 20.842 8.93002 18.4574C8.65054 17.4666 8.5108 16.9711 8.50099 16.5703C8.45884 14.8474 9.76923 13.5613 11.3125 13.5" stroke="white" stroke-width="1.5" stroke-linecap="round"/>
<path d="M16 8.50008V17.6667M16 8.50008C15.4164 8.50008 14.3262 10.162 13.9166 10.5834M16 8.50008C16.5835 8.50008 17.6737 10.162 18.0833 10.5834" stroke="white" stroke-width="1.5" stroke-linecap="round" stroke-linejoin="round"/>
<defs>
<linearGradient id="paint0_linear_61_835" x1="0.587157" y1="-4.24066e-05" x2="36.7419" y2="0.893088" gradientUnits="userSpaceOnUse">
<stop stop-color="#01411C"/>
<stop offset="1" stop-color="#64BD8A"/>
</linearGradient>
</defs>
</svg>
