<svg width="157" height="119" viewBox="0 0 157 119" fill="none" xmlns="http://www.w3.org/2000/svg">
<ellipse cx="85.3044" cy="53.0629" rx="36.5652" ry="36.5766" fill="url(#paint0_linear_24_383)"/>
<path d="M156.203 95.3982C154.618 95.8073 152.658 96.4029 151.481 97.6016C150.047 99.062 149.518 101.288 149.05 103.508C149.042 103.553 149.019 103.594 148.984 103.624C148.949 103.653 148.905 103.669 148.859 103.669C148.814 103.669 148.769 103.653 148.734 103.624C148.699 103.594 148.676 103.553 148.668 103.508C148.29 101.729 147.802 99.5974 146.778 98.2739C145.477 96.5939 143.471 95.9066 141.502 95.3982C141.458 95.3879 141.419 95.3631 141.391 95.3277C141.364 95.2924 141.348 95.2486 141.348 95.2034C141.348 95.1583 141.364 95.1145 141.391 95.0791C141.419 95.0438 141.458 95.0189 141.502 95.0087C143.224 94.5575 145.198 93.9754 146.432 92.6113C147.716 91.19 148.224 88.961 148.672 86.896C148.68 86.8507 148.704 86.8098 148.739 86.7803C148.774 86.7508 148.818 86.7346 148.864 86.7346C148.909 86.7346 148.953 86.7508 148.988 86.7803C149.023 86.8098 149.047 86.8507 149.055 86.896C149.464 88.8332 150.162 91.035 151.327 92.4157C152.591 93.9198 154.378 94.5334 156.208 95.0057C156.253 95.0151 156.293 95.04 156.322 95.0762C156.351 95.1123 156.366 95.1574 156.366 95.2038C156.365 95.2502 156.349 95.2949 156.319 95.3304C156.289 95.3658 156.248 95.3898 156.203 95.3982Z" fill="#64BD8A"/>
<path d="M52.8176 8.71154C51.2311 9.12063 49.2727 9.71623 48.094 10.9149C46.6599 12.3769 46.1325 14.6029 45.6634 16.8213C45.6555 16.8665 45.6319 16.9075 45.597 16.937C45.562 16.9665 45.5179 16.9827 45.4722 16.9827C45.4266 16.9827 45.3824 16.9665 45.3475 16.937C45.3125 16.9075 45.289 16.8665 45.281 16.8213C44.9031 15.0435 44.4161 12.9108 43.3913 11.5873C42.0901 9.90724 40.0853 9.2199 38.1149 8.71154C38.0712 8.70125 38.0323 8.67641 38.0045 8.64105C37.9766 8.60569 37.9615 8.56189 37.9615 8.51676C37.9615 8.47163 37.9766 8.42783 38.0045 8.39247C38.0323 8.35711 38.0712 8.33227 38.1149 8.32199C39.8373 7.87078 41.8107 7.28872 43.0447 5.92455C44.3279 4.50324 44.8373 2.27576 45.2855 0.20921C45.2935 0.163986 45.317 0.123031 45.352 0.0935262C45.3869 0.0640216 45.4311 0.0478516 45.4767 0.0478516C45.5223 0.0478516 45.5665 0.0640216 45.6015 0.0935262C45.6364 0.123031 45.66 0.163986 45.6679 0.20921C46.0773 2.14641 46.7749 4.34682 47.9401 5.72903C49.2039 7.23307 50.9906 7.84521 52.8221 8.31748C52.8681 8.32612 52.9095 8.35081 52.9392 8.3872C52.9689 8.42358 52.9848 8.46933 52.9843 8.5164C52.9838 8.56347 52.9667 8.60884 52.9363 8.64453C52.9058 8.68022 52.8638 8.70395 52.8176 8.71154Z" fill="#64BD8A"/>
<path d="M21.8958 48.4527C19.631 49.0378 16.83 49.8875 15.1464 51.6021C13.0953 53.6898 12.3424 56.8663 11.6716 60.0428C11.6592 60.1064 11.6252 60.1637 11.5755 60.2049C11.5258 60.246 11.4634 60.2686 11.399 60.2686C11.3346 60.2686 11.2722 60.246 11.2225 60.2049C11.1728 60.1637 11.1388 60.1064 11.1264 60.0428C10.5856 57.501 9.88945 54.4493 8.42694 52.5617C6.56557 50.1553 3.70031 49.1791 0.885837 48.4527C0.82349 48.438 0.767909 48.4025 0.728124 48.352C0.688338 48.3015 0.666687 48.2389 0.666687 48.1744C0.666687 48.11 0.688338 48.0474 0.728124 47.9969C0.767909 47.9464 0.82349 47.9109 0.885837 47.8962C3.34626 47.2615 6.1667 46.4192 7.92649 44.47C9.76247 42.438 10.499 39.254 11.1264 36.3061C11.1388 36.2425 11.1728 36.1852 11.2225 36.144C11.2722 36.1028 11.3346 36.0803 11.399 36.0803C11.4634 36.0803 11.5258 36.1028 11.5755 36.144C11.6252 36.1852 11.6592 36.2425 11.6716 36.3061C12.2572 39.075 13.2552 42.2214 14.9193 44.1963C16.7269 46.3395 19.28 47.2209 21.8958 47.8962C21.9581 47.9109 22.0137 47.9464 22.0535 47.9969C22.0933 48.0474 22.1149 48.11 22.1149 48.1744C22.1149 48.2389 22.0933 48.3015 22.0535 48.352C22.0137 48.4025 21.9581 48.438 21.8958 48.4527Z" fill="#64BD8A"/>
<path d="M138.027 25.4861C137.258 25.6846 136.308 25.9734 135.735 26.5554C135.041 27.2638 134.784 28.3437 134.557 29.4131C134.553 29.4349 134.541 29.4547 134.524 29.469C134.508 29.4832 134.486 29.491 134.464 29.491C134.442 29.491 134.421 29.4832 134.404 29.469C134.387 29.4547 134.375 29.4349 134.372 29.4131C134.188 28.5498 133.952 27.5135 133.456 26.8728C132.824 26.0591 131.851 25.7252 130.895 25.4785C130.874 25.4732 130.856 25.461 130.843 25.4438C130.829 25.4267 130.822 25.4055 130.822 25.3838C130.822 25.3621 130.829 25.3409 130.843 25.3238C130.856 25.3066 130.874 25.2944 130.895 25.289C131.73 25.074 132.688 24.7882 133.285 24.1264C133.908 23.4376 134.159 22.3562 134.372 21.356C134.375 21.3342 134.387 21.3144 134.404 21.3001C134.421 21.2859 134.442 21.2781 134.464 21.2781C134.486 21.2781 134.508 21.2859 134.524 21.3001C134.541 21.3144 134.553 21.3342 134.557 21.356C134.755 22.296 135.095 23.3639 135.659 24.0332C136.273 24.7611 137.14 25.0604 138.027 25.289C138.053 25.289 138.078 25.2994 138.096 25.3179C138.115 25.3364 138.125 25.3614 138.125 25.3876C138.125 25.4137 138.115 25.4387 138.096 25.4572C138.078 25.4757 138.053 25.4861 138.027 25.4861Z" fill="#64BD8A"/>
<path d="M52.7266 93.2833C51.9587 93.4818 51.0071 93.7706 50.4364 94.3512C49.7403 95.0611 49.4833 96.1395 49.2563 97.2163C49.2523 97.2382 49.2409 97.258 49.224 97.2722C49.2071 97.2865 49.1857 97.2943 49.1636 97.2943C49.1416 97.2943 49.1202 97.2865 49.1033 97.2722C49.0864 97.258 49.0749 97.2382 49.071 97.2163C48.8873 96.3545 48.6512 95.3183 48.1553 94.6775C47.5233 93.8623 46.5508 93.5299 45.5947 93.2833C45.5738 93.2779 45.5553 93.2657 45.542 93.2485C45.5287 93.2314 45.5215 93.2103 45.5215 93.1885C45.5215 93.1668 45.5287 93.1457 45.542 93.1285C45.5553 93.1114 45.5738 93.0991 45.5947 93.0938C46.4313 92.8787 47.3874 92.5929 47.985 91.9312C48.6079 91.2423 48.8589 90.1609 49.071 89.1607C49.0749 89.1388 49.0864 89.1191 49.1033 89.1048C49.1202 89.0906 49.1416 89.0828 49.1636 89.0828C49.1857 89.0828 49.2071 89.0906 49.224 89.1048C49.2409 89.1191 49.2523 89.1388 49.2563 89.1607C49.4549 90.0992 49.7941 91.1671 50.3587 91.8379C50.9727 92.5659 51.8392 92.8652 52.7266 93.0938C52.7475 93.0991 52.766 93.1114 52.7793 93.1285C52.7926 93.1457 52.7998 93.1668 52.7998 93.1885C52.7998 93.2103 52.7926 93.2314 52.7793 93.2485C52.766 93.2657 52.7475 93.2779 52.7266 93.2833Z" fill="#64BD8A"/>
<path d="M80.0138 114.607C79.2444 114.806 78.2943 115.095 77.7221 115.677C77.0275 116.385 76.7705 117.465 76.5434 118.534C76.5395 118.556 76.5281 118.576 76.5112 118.59C76.4942 118.605 76.4729 118.612 76.4508 118.612C76.4288 118.612 76.4074 118.605 76.3905 118.59C76.3735 118.576 76.3621 118.556 76.3582 118.534C76.1745 117.671 75.9384 116.636 75.4425 115.996C74.8105 115.18 73.838 114.847 72.8819 114.6C72.8606 114.595 72.8416 114.583 72.828 114.566C72.8143 114.549 72.8069 114.528 72.8069 114.506C72.8069 114.484 72.8143 114.463 72.828 114.446C72.8416 114.428 72.8606 114.417 72.8819 114.412C73.717 114.195 74.6746 113.91 75.2721 113.249C75.8951 112.559 76.1461 111.478 76.3582 110.477C76.3621 110.455 76.3735 110.436 76.3905 110.421C76.4074 110.407 76.4288 110.399 76.4508 110.399C76.4729 110.399 76.4942 110.407 76.5112 110.421C76.5281 110.436 76.5395 110.455 76.5434 110.477C76.7421 111.417 77.0812 112.485 77.6459 113.156C78.2599 113.884 79.1264 114.182 80.0138 114.412C80.0395 114.412 80.0642 114.422 80.0824 114.441C80.1006 114.459 80.1109 114.484 80.1109 114.51C80.1109 114.536 80.1006 114.56 80.0824 114.579C80.0642 114.597 80.0395 114.607 80.0138 114.607Z" fill="#64BD8A"/>
<path d="M105.009 35.9149C102.873 33.7562 98.3774 33.3596 96.2932 35.9149L85.533 49.1085L80.4079 55.3882C79.7978 56.1319 79.0803 57.2468 78.2932 58.281L77.832 57.8121L74.3555 54.2829C68.8168 48.6516 60.1042 57.2649 65.6417 62.8866C68.502 65.789 71.422 69.8461 75.2988 71.3781C79.5501 73.0571 83.3207 71.0358 86.054 67.7621C92.4567 60.0866 98.691 52.2676 105.009 44.5282C107.111 41.9452 107.512 38.4425 105.009 35.9149Z" fill="white"/>
<defs>
<linearGradient id="paint0_linear_24_383" x1="60.5" y1="15.9999" x2="103.5" y2="84.9999" gradientUnits="userSpaceOnUse">
<stop stop-color="#01411C"/>
<stop offset="1" stop-color="#64BD8A"/>
</linearGradient>
</defs>
</svg>
