<svg width="24" height="24" viewBox="0 0 24 24" fill="none" xmlns="http://www.w3.org/2000/svg">
<g clip-path="url(#clip0_44_4219)">
<path d="M16.7778 16.7C18.5268 16.7 19.9444 18.1101 19.9444 19.85C19.9444 21.5898 18.5268 23 16.7778 23C15.0287 23 13.6111 21.5898 13.6111 19.85C13.6111 18.1101 15.0287 16.7 16.7778 16.7ZM6.22222 12.5C8.555 12.5 10.4444 14.3795 10.4444 16.7C10.4444 19.0205 8.555 20.9 6.22222 20.9C3.88944 20.9 2 19.0205 2 16.7C2 14.3795 3.88944 12.5 6.22222 12.5ZM16.7778 18.8C16.1951 18.8 15.7222 19.2704 15.7222 19.85C15.7222 20.4296 16.1951 20.9 16.7778 20.9C17.3604 20.9 17.8333 20.4296 17.8333 19.85C17.8333 19.2704 17.3604 18.8 16.7778 18.8ZM6.22222 14.6C5.05583 14.6 4.11111 15.5397 4.11111 16.7C4.11111 17.8602 5.05583 18.8 6.22222 18.8C7.38861 18.8 8.33333 17.8602 8.33333 16.7C8.33333 15.5397 7.38861 14.6 6.22222 14.6ZM15.1944 2C18.4012 2 21 4.5851 21 7.775C21 10.9649 18.4012 13.55 15.1944 13.55C11.9877 13.55 9.38889 10.9649 9.38889 7.775C9.38889 4.5851 11.9877 2 15.1944 2ZM15.1944 4.1C13.1541 4.1 11.5 5.74535 11.5 7.775C11.5 9.80465 13.1541 11.45 15.1944 11.45C17.2348 11.45 18.8889 9.80465 18.8889 7.775C18.8889 5.74535 17.2348 4.1 15.1944 4.1Z" fill="#797C7B"/>
</g>
<defs>
<clipPath id="clip0_44_4219">
<rect width="24" height="24" fill="white"/>
</clipPath>
</defs>
</svg>
