<svg width="26" height="26" viewBox="0 0 26 26" fill="none" xmlns="http://www.w3.org/2000/svg">
<path d="M13.9192 4.33325H12.0808C11.0655 4.33325 10.2424 5.10929 10.2424 6.06659C10.2424 7.16206 9.07034 7.85854 8.10818 7.33478L8.01046 7.28158C7.13117 6.80293 6.00682 7.08698 5.49917 7.91602L4.57997 9.41713C4.07231 10.2462 4.37358 11.3063 5.25287 11.7849C6.21549 12.3089 6.21549 13.6909 5.25287 14.2149C4.37358 14.6936 4.07231 15.7537 4.57997 16.5827L5.49917 18.0838C6.00682 18.9129 7.13117 19.1969 8.01045 18.7183L8.10818 18.6651C9.07034 18.1413 10.2424 18.8378 10.2424 19.9333C10.2424 20.8905 11.0655 21.6666 12.0808 21.6666H13.9192C14.9345 21.6666 15.7576 20.8905 15.7576 19.9333C15.7576 18.8378 16.9297 18.1413 17.8919 18.6651L17.9896 18.7182C18.8689 19.1969 19.9932 18.9128 20.5009 18.0838L21.4201 16.5827C21.9278 15.7536 21.6265 14.6936 20.7472 14.2149C19.7846 13.6909 19.7846 12.3089 20.7472 11.7849C21.6265 11.3063 21.9278 10.2462 21.4201 9.41715L20.5009 7.91604C19.9932 7.087 18.8689 6.80295 17.9896 7.28159L17.8919 7.33479C16.9297 7.85855 15.7576 7.16207 15.7576 6.06659C15.7576 5.10929 14.9345 4.33325 13.9192 4.33325Z" stroke="#797C7B" stroke-width="1.5" stroke-linejoin="round"/>
<circle cx="13" cy="13" r="3.25" stroke="#797C7B" stroke-width="1.5"/>
</svg>
