<svg width="14" height="14" viewBox="0 0 14 14" fill="none" xmlns="http://www.w3.org/2000/svg">
<g opacity="0.8" clip-path="url(#clip0_36_1004)">
<path d="M5.4635 6.23117C6.01086 7.19278 6.80722 7.98914 7.76883 8.5365L8.2845 7.81433C8.36743 7.69821 8.49004 7.61651 8.62914 7.58469C8.76823 7.55288 8.91417 7.57315 9.03933 7.64167C9.86435 8.09254 10.7755 8.3637 11.7127 8.43733C11.859 8.44893 11.9956 8.51523 12.0952 8.62302C12.1947 8.73081 12.25 8.87217 12.25 9.01892V11.6217C12.25 11.7662 12.1965 11.9055 12.0997 12.0127C12.0029 12.1199 11.8698 12.1874 11.7262 12.2022C11.417 12.2342 11.1055 12.25 10.7917 12.25C5.79833 12.25 1.75 8.20167 1.75 3.20833C1.75 2.8945 1.76575 2.583 1.79783 2.27383C1.81257 2.13016 1.88007 1.99705 1.98729 1.90029C2.09451 1.80352 2.23382 1.74997 2.37825 1.75H4.98108C5.12783 1.74998 5.26919 1.80527 5.37698 1.90485C5.48477 2.00442 5.55107 2.14096 5.56267 2.28725C5.6363 3.22455 5.90746 4.13565 6.35833 4.96067C6.42685 5.08583 6.44712 5.23177 6.41531 5.37086C6.38349 5.50996 6.30179 5.63257 6.18567 5.7155L5.4635 6.23117ZM3.99233 5.84792L5.10067 5.05633C4.78612 4.37739 4.57062 3.65682 4.46075 2.91667H2.9225C2.919 3.0135 2.91725 3.11092 2.91725 3.20833C2.91667 7.55767 6.44233 11.0833 10.7917 11.0833C10.8891 11.0833 10.9865 11.0816 11.0833 11.0775V9.53925C10.3432 9.42938 9.62261 9.21388 8.94367 8.89933L8.15208 10.0077C7.83339 9.88383 7.52384 9.73764 7.22575 9.57017L7.19192 9.55092C6.04775 8.89975 5.10025 7.95225 4.44908 6.80808L4.42983 6.77425C4.26236 6.47616 4.11617 6.16661 3.99233 5.84792Z" fill="#797C7B"/>
</g>
<defs>
<clipPath id="clip0_36_1004">
<rect width="14" height="14" fill="white"/>
</clipPath>
</defs>
</svg>
