<svg width="24" height="24" viewBox="0 0 24 24" fill="none" xmlns="http://www.w3.org/2000/svg">
<path d="M0 12C0 5.37258 5.37258 0 12 0C18.6274 0 24 5.37258 24 12C24 18.6274 18.6274 24 12 24C5.37258 24 0 18.6274 0 12Z" fill="url(#paint0_linear_36_1525)"/>
<path d="M13.75 14.3333L13.6519 14.8236C13.873 14.8678 14.0964 14.7586 14.1972 14.5569L13.75 14.3333ZM9.66667 10.25L9.44306 9.80279C9.24139 9.90362 9.13216 10.127 9.17638 10.3481L9.66667 10.25ZM9.87318 10.1467L10.0968 10.594H10.0968L9.87318 10.1467ZM10.4346 8.66996L10.8989 8.48426L10.4346 8.66996ZM9.96002 7.48338L9.49578 7.66907V7.66907L9.96002 7.48338ZM16.5166 14.04L16.3309 14.5042L16.5166 14.04ZM15.33 13.5654L15.5157 13.1011L15.33 13.5654ZM13.8533 14.1268L14.3005 14.3504L14.3005 14.3504L13.8533 14.1268ZM14.4167 11.4167C14.4167 11.6928 14.6405 11.9167 14.9167 11.9167C15.1928 11.9167 15.4167 11.6928 15.4167 11.4167H14.4167ZM14.7391 10.5237L15.201 10.3324V10.3324L14.7391 10.5237ZM13.4763 9.26095L13.6676 8.79901L13.4763 9.26095ZM12.5833 8.58333C12.3072 8.58333 12.0833 8.80719 12.0833 9.08333C12.0833 9.35948 12.3072 9.58333 12.5833 9.58333V8.58333ZM16.75 11.4167C16.75 11.6928 16.9739 11.9167 17.25 11.9167C17.5261 11.9167 17.75 11.6928 17.75 11.4167H16.75ZM16.8948 9.63081L17.3567 9.43947V9.43947L16.8948 9.63081ZM14.3692 7.10523L14.5605 6.64329V6.64329L14.3692 7.10523ZM12.5833 6.25C12.3072 6.25 12.0833 6.47386 12.0833 6.75C12.0833 7.02614 12.3072 7.25 12.5833 7.25V6.25ZM16.75 15.1232V16.0833H17.75V15.1232H16.75ZM7.91667 7.25H8.8768V6.25H7.91667V7.25ZM13.75 14.3333C13.8481 13.843 13.8482 13.8431 13.8483 13.8431C13.8484 13.8431 13.8485 13.8431 13.8486 13.8431C13.8487 13.8432 13.8489 13.8432 13.849 13.8432C13.8492 13.8433 13.8493 13.8433 13.8494 13.8433C13.8495 13.8433 13.8492 13.8433 13.8486 13.8432C13.8475 13.8429 13.8449 13.8424 13.8411 13.8415C13.8335 13.8398 13.8207 13.8369 13.8032 13.8327C13.7682 13.8242 13.7143 13.8102 13.645 13.7898C13.5061 13.749 13.3063 13.6825 13.072 13.5821C12.601 13.3802 12.0043 13.0472 11.4786 12.5214L10.7714 13.2286C11.4124 13.8695 12.1282 14.2656 12.678 14.5012C12.9541 14.6196 13.1919 14.6989 13.3628 14.7492C13.4484 14.7744 13.5176 14.7924 13.5669 14.8044C13.5915 14.8104 13.6112 14.8149 13.6255 14.818C13.6327 14.8196 13.6385 14.8208 13.6429 14.8218C13.6451 14.8222 13.647 14.8226 13.6485 14.8229C13.6493 14.8231 13.6499 14.8232 13.6505 14.8233C13.6508 14.8234 13.651 14.8234 13.6513 14.8235C13.6514 14.8235 13.6516 14.8235 13.6516 14.8236C13.6518 14.8236 13.6519 14.8236 13.75 14.3333ZM11.4786 12.5214C10.9528 11.9957 10.6198 11.399 10.4179 10.928C10.3175 10.6937 10.251 10.4939 10.2102 10.355C10.1898 10.2857 10.1758 10.2318 10.1673 10.1968C10.1631 10.1793 10.1602 10.1665 10.1585 10.1589C10.1576 10.1551 10.1571 10.1525 10.1568 10.1514C10.1567 10.1508 10.1567 10.1505 10.1567 10.1506C10.1567 10.1507 10.1567 10.1508 10.1568 10.151C10.1568 10.1511 10.1568 10.1513 10.1569 10.1514C10.1569 10.1515 10.1569 10.1516 10.1569 10.1517C10.1569 10.1518 10.157 10.1519 9.66667 10.25C9.17638 10.3481 9.17641 10.3482 9.17644 10.3484C9.17645 10.3484 9.17648 10.3486 9.17651 10.3487C9.17656 10.349 9.17661 10.3492 9.17667 10.3495C9.17678 10.3501 9.17692 10.3507 9.17707 10.3515C9.17738 10.353 9.17777 10.3549 9.17823 10.3571C9.17916 10.3615 9.1804 10.3673 9.18198 10.3745C9.18514 10.3888 9.18965 10.4085 9.19564 10.4331C9.20763 10.4824 9.22561 10.5516 9.25079 10.6372C9.30107 10.8081 9.38044 11.0459 9.49876 11.322C9.73441 11.8718 10.1305 12.5876 10.7714 13.2286L11.4786 12.5214ZM9.89027 10.6972L10.0968 10.594L9.64957 9.69953L9.44306 9.80279L9.89027 10.6972ZM10.8989 8.48426L10.4243 7.29768L9.49578 7.66907L9.97041 8.85565L10.8989 8.48426ZM16.7023 13.5757L15.5157 13.1011L15.1443 14.0296L16.3309 14.5042L16.7023 13.5757ZM13.406 13.9032L13.3028 14.1097L14.1972 14.5569L14.3005 14.3504L13.406 13.9032ZM15.5157 13.1011C14.7109 12.7792 13.7937 13.1279 13.406 13.9032L14.3005 14.3504C14.4555 14.0403 14.8224 13.9008 15.1443 14.0296L15.5157 13.1011ZM10.0968 10.594C10.8721 10.2063 11.2208 9.28908 10.8989 8.48426L9.97041 8.85565C10.0992 9.17758 9.95969 9.54447 9.64957 9.69953L10.0968 10.594ZM8.8768 7.25C9.1494 7.25 9.39454 7.41597 9.49578 7.66907L10.4243 7.29768C10.1712 6.66492 9.5583 6.25 8.8768 6.25V7.25ZM17.75 15.1232C17.75 14.4417 17.3351 13.8288 16.7023 13.5757L16.3309 14.5042C16.584 14.6055 16.75 14.8506 16.75 15.1232H17.75ZM16.0833 16.75C11.2048 16.75 7.25 12.7952 7.25 7.91667H6.25C6.25 13.3475 10.6525 17.75 16.0833 17.75V16.75ZM16.0833 17.75C17.0038 17.75 17.75 17.0038 17.75 16.0833H16.75C16.75 16.4515 16.4515 16.75 16.0833 16.75V17.75ZM7.25 7.91667C7.25 7.54848 7.54848 7.25 7.91667 7.25V6.25C6.99619 6.25 6.25 6.99619 6.25 7.91667H7.25ZM15.4167 11.4167C15.4167 11.0446 15.3434 10.6762 15.201 10.3324L14.2771 10.7151C14.3692 10.9375 14.4167 11.1759 14.4167 11.4167H15.4167ZM15.201 10.3324C15.0586 9.98864 14.8499 9.6763 14.5868 9.4132L13.8797 10.1203C14.0499 10.2905 14.185 10.4926 14.2771 10.7151L15.201 10.3324ZM14.5868 9.4132C14.3237 9.1501 14.0114 8.9414 13.6676 8.79901L13.2849 9.72289C13.5073 9.81502 13.7095 9.95006 13.8797 10.1203L14.5868 9.4132ZM13.6676 8.79901C13.3238 8.65662 12.9554 8.58333 12.5833 8.58333V9.58333C12.8241 9.58333 13.0625 9.63075 13.2849 9.72289L13.6676 8.79901ZM17.75 11.4167C17.75 10.7382 17.6164 10.0663 17.3567 9.43947L16.4328 9.82215C16.6422 10.3277 16.75 10.8695 16.75 11.4167H17.75ZM17.3567 9.43947C17.0971 8.81262 16.7165 8.24305 16.2367 7.76328L15.5296 8.47039C15.9165 8.8573 16.2234 9.31663 16.4328 9.82215L17.3567 9.43947ZM16.2367 7.76328C15.7569 7.28351 15.1874 6.90294 14.5605 6.64329L14.1778 7.56717C14.6834 7.77656 15.1427 8.08348 15.5296 8.47039L16.2367 7.76328ZM14.5605 6.64329C13.9337 6.38364 13.2618 6.25 12.5833 6.25V7.25C13.1305 7.25 13.6723 7.35777 14.1778 7.56717L14.5605 6.64329Z" fill="white"/>
<defs>
<linearGradient id="paint0_linear_36_1525" x1="0.440368" y1="-3.1805e-05" x2="27.5564" y2="0.669816" gradientUnits="userSpaceOnUse">
<stop stop-color="#01411C"/>
<stop offset="1" stop-color="#64BD8A"/>
</linearGradient>
</defs>
</svg>
