<svg width="40" height="40" viewBox="0 0 40 40" fill="none" xmlns="http://www.w3.org/2000/svg">
<rect width="40" height="40" rx="20" fill="url(#paint0_linear_36_1544)"/>
<path fill-rule="evenodd" clip-rule="evenodd" d="M15.2401 11.6266L29.8383 18.9238C30.246 19.1276 30.5036 19.5442 30.5036 20C30.5036 20.4557 30.246 20.8724 29.8383 21.0761L15.2401 28.3733C14.8171 28.5849 14.3094 28.529 13.9425 28.2306C13.5756 27.9321 13.4175 27.4464 13.5385 26.9892L15.3898 20L13.5385 13.0108C13.4175 12.5535 13.5756 12.0678 13.9425 11.7694C14.3094 11.4709 14.8171 11.4151 15.2401 11.6266Z" fill="white"/>
<path d="M20.8829 20.0002H15.3898" stroke="url(#paint1_linear_36_1544)" stroke-width="1.5" stroke-linecap="round" stroke-linejoin="round"/>
<defs>
<linearGradient id="paint0_linear_36_1544" x1="8" y1="3" x2="33.5" y2="37" gradientUnits="userSpaceOnUse">
<stop stop-color="#01411C"/>
<stop offset="1" stop-color="#64BD8A"/>
</linearGradient>
<linearGradient id="paint1_linear_36_1544" x1="18.1363" y1="19.5" x2="18.1363" y2="20.5004" gradientUnits="userSpaceOnUse">
<stop stop-color="#01411C"/>
<stop offset="1" stop-color="#64BD8A"/>
</linearGradient>
</defs>
</svg>
