<svg width="56" height="56" viewBox="0 0 56 56" fill="none" xmlns="http://www.w3.org/2000/svg">
<path d="M0 28C0 12.536 12.536 0 28 0C43.464 0 56 12.536 56 28C56 43.464 43.464 56 28 56C12.536 56 0 43.464 0 28Z" fill="url(#paint0_linear_36_1370)"/>
<g clip-path="url(#clip0_36_1370)">
<path d="M25.6667 26.6667C26.219 26.6667 26.6667 26.219 26.6667 25.6667V19.6667C26.6667 19.1145 27.1145 18.6667 27.6667 18.6667H28.3334C28.8857 18.6667 29.3334 19.1145 29.3334 19.6667V25.6667C29.3334 26.219 29.7811 26.6667 30.3334 26.6667H36.3334C36.8857 26.6667 37.3334 27.1145 37.3334 27.6667V28.3334C37.3334 28.8857 36.8857 29.3334 36.3334 29.3334H30.3334C29.7811 29.3334 29.3334 29.7811 29.3334 30.3334V36.3334C29.3334 36.8857 28.8857 37.3334 28.3334 37.3334H27.6667C27.1145 37.3334 26.6667 36.8857 26.6667 36.3334V30.3334C26.6667 29.7811 26.219 29.3334 25.6667 29.3334H19.6667C19.1145 29.3334 18.6667 28.8857 18.6667 28.3334V27.6667C18.6667 27.1145 19.1145 26.6667 19.6667 26.6667H25.6667Z" fill="white"/>
</g>
<defs>
<linearGradient id="paint0_linear_36_1370" x1="1.02752" y1="-7.42116e-05" x2="64.2983" y2="1.5629" gradientUnits="userSpaceOnUse">
<stop stop-color="#01411C"/>
<stop offset="1" stop-color="#64BD8A"/>
</linearGradient>
<clipPath id="clip0_36_1370">
<rect width="32" height="32" fill="white" transform="translate(12 12)"/>
</clipPath>
</defs>
</svg>
