<svg width="56" height="56" viewBox="0 0 56 56" fill="none" xmlns="http://www.w3.org/2000/svg">
<path d="M0 28C0 12.536 12.536 0 28 0C43.464 0 56 12.536 56 28C56 43.464 43.464 56 28 56C12.536 56 0 43.464 0 28Z" fill="url(#paint0_linear_138_489)"/>
<path d="M17.1617 37.3332C17.4839 37.3332 17.745 37.072 17.745 36.7498C17.745 36.4277 17.4839 36.1665 17.1617 36.1665C16.8395 36.1665 16.5784 36.4277 16.5784 36.7498C16.5784 37.072 16.8395 37.3332 17.1617 37.3332Z" fill="white"/>
<path fill-rule="evenodd" clip-rule="evenodd" d="M38.3195 30.6202C38.4799 30.8995 38.3847 31.2562 38.106 31.4173C37.8274 31.5784 37.4699 31.4828 37.3095 31.2043C36.5985 29.9759 35.2719 29.1623 33.7712 29.1623H32.5179C31.1789 29.9052 29.6374 30.329 27.9981 30.329C26.3587 30.329 24.8172 29.9052 23.4783 29.1623H22.225C20.1371 29.1623 18.3862 30.7362 18.1647 32.8121L17.9241 35.0573C17.8901 35.3779 17.6019 35.6098 17.2825 35.5759C16.9617 35.5413 16.7306 35.2537 16.7646 34.9339L17.0038 32.6878C17.2893 30.0196 19.5403 27.9956 22.225 27.9956H23.6319C23.7353 27.9956 23.8358 28.0227 23.9242 28.0739C25.1231 28.7664 26.515 29.1623 27.9981 29.1623C29.4811 29.1623 30.8731 28.7664 32.072 28.0739C32.1604 28.0227 32.2609 27.9956 32.3642 27.9956H33.7712C35.7001 27.9956 37.406 29.0411 38.3195 30.6202ZM16.3908 38.4339C16.4247 38.1132 16.7129 37.8814 17.0323 37.9152C17.3531 37.9499 17.5843 38.2374 17.5503 38.5573L17.5014 39.0172C17.4837 39.1812 17.5367 39.3461 17.6481 39.4688C17.7582 39.5922 17.9159 39.6622 18.0818 39.6622H37.9144C38.0802 39.6622 38.2379 39.5922 38.348 39.4688C38.4595 39.3461 38.5125 39.1812 38.4948 39.0172L37.8315 32.8121C37.7975 32.4922 38.0299 32.2039 38.3494 32.17C38.6702 32.1354 38.9584 32.368 38.9924 32.6878L39.6543 38.893C39.7074 39.3867 39.5483 39.8798 39.2166 40.2486C38.8836 40.6182 38.4105 40.8289 37.9144 40.8289H18.0818C17.5856 40.8289 17.1126 40.6182 16.7795 40.2486C16.4479 39.8798 16.2888 39.3867 16.3418 38.893L16.3908 38.4339Z" fill="white"/>
<path fill-rule="evenodd" clip-rule="evenodd" d="M31.304 17.7065C31.0765 17.479 31.0782 17.108 31.3057 16.8805C31.5332 16.6547 31.9042 16.6547 32.13 16.8822C33.1835 17.9375 33.8328 19.3935 33.8328 21C33.8328 24.22 31.22 26.8328 28 26.8328C24.78 26.8328 22.1672 24.22 22.1672 21C22.1672 17.78 24.78 15.1672 28 15.1672C28.931 15.1672 29.8112 15.386 30.5935 15.7745C30.8822 15.918 30.9995 16.268 30.856 16.5567C30.7125 16.8437 30.3625 16.9628 30.0737 16.8193C29.449 16.5078 28.7438 16.3328 28 16.3328C25.424 16.3328 23.3328 18.424 23.3328 21C23.3328 23.576 25.424 25.6672 28 25.6672C30.576 25.6672 32.6672 23.576 32.6672 21C32.6672 19.7155 32.1458 18.55 31.304 17.7065Z" fill="white"/>
<defs>
<linearGradient id="paint0_linear_138_489" x1="1.02752" y1="-7.42116e-05" x2="64.2983" y2="1.5629" gradientUnits="userSpaceOnUse">
<stop stop-color="#01411C"/>
<stop offset="1" stop-color="#64BD8A"/>
</linearGradient>
</defs>
</svg>
